<svg width="100" height="100" viewBox="0 0 100 100" fill="none" xmlns="http://www.w3.org/2000/svg">
<path fill-rule="evenodd" clip-rule="evenodd" d="M52.9216 2.64886L90.5784 24.3901C92.0769 25.2552 93 26.8541 93 28.5843V72.0667C93 73.797 92.0769 75.3959 90.5784 76.261L52.9216 98.0022C51.4231 98.8674 49.5769 98.8674 48.0784 98.0022L10.4216 76.261C8.9231 75.3959 8 73.797 8 72.0667V28.5843C8 26.8541 8.9231 25.2552 10.4216 24.3901L48.0784 2.64886C49.5769 1.78371 51.4231 1.78371 52.9216 2.64886ZM71.0537 41.915L72.4202 30.7014H33.3766L28.5798 69.9491H39.7351L41.4363 55.932H69.3246L70.719 44.7184H42.8307L43.1654 41.915H71.0537Z" fill="#2C1178"/>
</svg>
