<svg xmlns="http://www.w3.org/2000/svg" xmlns:xlink="http://www.w3.org/1999/xlink" width="15" height="15" viewBox="0 0 15 15" fill="currentColor">
  <path id="Linea_1" data-name="Linea 1" d="M12.5.5H-.5v-1h13Z" transform="translate(1.5 3.5)"/>
  <rect id="Rettangolo_1" data-name="Rettangolo 1" width="7" height="2" transform="translate(4 1)"/>
  <path id="Rettangolo_1_-_Contorno" data-name="Rettangolo 1 - Contorno" d="M0,0H7V2H0Z" transform="translate(4 1)"/>
  <path id="Tracciato_3" data-name="Tracciato 3" d="M-140.564,98.413l-1-1h-1v1h12v-1h-1l-1,1Z" transform="translate(144.064 -84.913)"/>
  <path id="Tracciato_3_-_Contorno" data-name="Tracciato 3 - Contorno" d="M-130.064,98.913h-13v-2h1.707l1,1h7.589l1-1h1.7Z" transform="translate(144.064 -84.913)"/>
  <path id="Linea_4" data-name="Linea 4" d="M10,.5H0v-1H10Z" transform="translate(2.5 5.5)"/>
  <path id="Linea_5" data-name="Linea 5" d="M.5,5.5h-1v-6h1Z" transform="translate(2.5 5.5)"/>
  <path id="Linea_6" data-name="Linea 6" d="M.5,5.5h-1v-6h1Z" transform="translate(12.5 5.5)"/>
  <path id="Rettangolo_2" data-name="Rettangolo 2" d="M0,0H1V1H0Z" transform="translate(10 10)"/>
  <path id="Rettangolo_3" data-name="Rettangolo 3" d="M0,0H1V1H0Z" transform="translate(8 10)"/>
  <path id="Rettangolo_4" data-name="Rettangolo 4" d="M0,0H1V1H0Z" transform="translate(6 10)"/>
  <path id="Rettangolo_5" data-name="Rettangolo 5" d="M0,0H1V1H0Z" transform="translate(4 10)"/>
</svg>
