<svg xmlns="http://www.w3.org/2000/svg" xmlns:xlink="http://www.w3.org/1999/xlink" width="15" height="15" viewBox="0 0 15 15" fill="currentColor">
  <rect id="Rettangolo_1" data-name="Rettangolo 1" width="7" height="7" transform="translate(4 1)"/>
  <path id="Rettangolo_1_-_Contorno" data-name="Rettangolo 1 - Contorno" d="M1,1V6H6V1H1M0,0H7V7H0Z" transform="translate(4 1)"/>
  <rect id="Rettangolo_6" data-name="Rettangolo 6" width="5" height="2" transform="translate(1 12)"/>
  <path id="Rettangolo_6_-_Contorno" data-name="Rettangolo 6 - Contorno" d="M0,0H5V2H0Z" transform="translate(1 12)"/>
  <rect id="Rettangolo_7" data-name="Rettangolo 7" width="5" height="2" transform="translate(9 12)"/>
  <path id="Rettangolo_7_-_Contorno" data-name="Rettangolo 7 - Contorno" d="M0,0H5V2H0Z" transform="translate(9 12)"/>
  <path id="Linea_7" data-name="Linea 7" d="M.5,4.5h-1v-5h1Z" transform="translate(7.5 9.5)"/>
  <rect id="Rettangolo_8" data-name="Rettangolo 8" width="3" height="2" transform="translate(6 8)" fill="#fff"/>
  <path id="Rettangolo_8_-_Contorno" data-name="Rettangolo 8 - Contorno" d="M0,0H3V2H0Z" transform="translate(6 8)"/>
  <rect id="Rettangolo_9" data-name="Rettangolo 9" width="1" height="1" transform="translate(4 10)" fill="#fff"/>
  <path id="Rettangolo_9_-_Contorno" data-name="Rettangolo 9 - Contorno" d="M0,0H1V1H0Z" transform="translate(4 10)"/>
  <rect id="Rettangolo_10" data-name="Rettangolo 10" width="1" height="1" transform="translate(2 9)" fill="#fff"/>
  <path id="Rettangolo_10_-_Contorno" data-name="Rettangolo 10 - Contorno" d="M0,0H1V1H0Z" transform="translate(2 9)"/>
</svg>
