<svg xmlns="http://www.w3.org/2000/svg" xmlns:xlink="http://www.w3.org/1999/xlink" width="15" height="15" viewBox="0 0 15 15" fill="currentColor">
  <rect id="Rettangolo_1" data-name="Rettangolo 1" width="7" height="3" transform="translate(4 1)"/>
  <path id="Rettangolo_1_-_Contorno" data-name="Rettangolo 1 - Contorno" d="M1,1V2H6V1H1M0,0H7V3H0Z" transform="translate(4 1)"/>
  <rect id="Rettangolo_6" data-name="Rettangolo 6" width="13" height="1" transform="translate(1 13)"/>
  <path id="Rettangolo_6_-_Contorno" data-name="Rettangolo 6 - Contorno" d="M0,0H13V1H0Z" transform="translate(1 13)"/>
  <path id="Linea_7" data-name="Linea 7" d="M.5,4.5h-1v-5h1Z" transform="translate(7.5 5.5)"/>
  <rect id="Rettangolo_8" data-name="Rettangolo 8" width="3" height="2" transform="translate(6 3)" fill="#fff"/>
  <path id="Rettangolo_8_-_Contorno" data-name="Rettangolo 8 - Contorno" d="M0,0H3V2H0Z" transform="translate(6 3)"/>
  <path id="Linea_8" data-name="Linea 8" d="M1.646,2.354l-2-2L.354-.354l2,2Z" transform="translate(3.5 9.5)"/>
  <path id="Tracciato_5" data-name="Tracciato 5" d="M1.5,0A1.5,1.5,0,0,1,3,1.5H0A1.5,1.5,0,0,1,1.5,0Z" transform="translate(6 11)" fill="#fff"/>
  <path id="Tracciato_5_-_Contorno" data-name="Tracciato 5 - Contorno" d="M1.5,0A1.5,1.5,0,0,1,3,1.5H0A1.5,1.5,0,0,1,1.5,0Z" transform="translate(6 11)"/>
  <path id="Linea_9" data-name="Linea 9" d="M.354,2.354l-.707-.707,2-2,.707.707Z" transform="translate(9.5 9.5)"/>
</svg>
